<svg xmlns="http://www.w3.org/2000/svg" xmlns:xlink="http://www.w3.org/1999/xlink" preserveAspectRatio="xMidYMid" width="45" height="248" viewBox="0 0 45 248">
  <defs>
    <style>
      .cls-1 {
        fill: #004b87;
        opacity: 0.9;
      }

      .cls-2 {
        fill: #0085ca;
      }

      .cls-3, .cls-5 {
        fill: #fff;
      }

      .cls-3 {
        fill-rule: evenodd;
      }

      .cls-4, .cls-5 {
        font-size: 48.762px;
      }

      .cls-5 {
        font-family: "Effra-Light";
        text-transform: uppercase;
      }
    </style>
  </defs>
  <g>
    <rect y="41" width="45" height="207" class="cls-1"/>
    <rect width="45" height="41" class="cls-2"/>
    <path d="M30.586,166.115 C30.406,166.757 30.176,167.339 29.897,167.864 C29.618,168.388 29.311,168.846 28.974,169.237 C28.638,169.629 28.306,169.949 27.977,170.199 L26.452,168.501 C26.714,168.268 26.981,168.005 27.251,167.714 C27.522,167.423 27.764,167.094 27.977,166.727 C28.191,166.361 28.363,165.953 28.494,165.504 C28.626,165.054 28.691,164.563 28.691,164.030 C28.691,162.931 28.445,162.074 27.953,161.457 C27.461,160.842 26.796,160.533 25.959,160.533 C25.057,160.533 24.381,160.883 23.929,161.582 C23.478,162.282 23.113,163.289 22.834,164.604 C22.686,165.321 22.481,165.970 22.219,166.553 C21.956,167.136 21.628,167.639 21.234,168.064 C20.841,168.488 20.385,168.817 19.869,169.050 C19.352,169.283 18.765,169.400 18.109,169.400 C17.502,169.400 16.928,169.283 16.386,169.050 C15.845,168.817 15.369,168.467 14.959,168.001 C14.549,167.535 14.221,166.952 13.975,166.253 C13.728,165.554 13.605,164.746 13.605,163.830 C13.605,163.015 13.692,162.311 13.864,161.720 C14.036,161.129 14.245,160.625 14.491,160.209 C14.737,159.793 14.992,159.459 15.254,159.210 C15.517,158.960 15.730,158.769 15.894,158.635 L17.346,160.234 C17.231,160.334 17.080,160.483 16.891,160.683 C16.702,160.883 16.518,161.137 16.337,161.445 C16.157,161.753 16.005,162.111 15.882,162.519 C15.759,162.927 15.697,163.397 15.697,163.930 C15.697,164.463 15.767,164.921 15.906,165.304 C16.046,165.687 16.226,166.003 16.448,166.253 C16.669,166.503 16.920,166.686 17.198,166.802 C17.478,166.919 17.756,166.977 18.035,166.977 C18.445,166.977 18.794,166.890 19.081,166.715 C19.368,166.540 19.622,166.286 19.844,165.953 C20.065,165.620 20.254,165.208 20.410,164.717 C20.566,164.226 20.718,163.664 20.865,163.031 C21.013,162.415 21.206,161.811 21.444,161.220 C21.682,160.629 22.001,160.101 22.403,159.634 C22.806,159.168 23.298,158.798 23.880,158.523 C24.462,158.248 25.172,158.111 26.009,158.111 C26.714,158.111 27.362,158.261 27.953,158.560 C28.543,158.860 29.056,159.272 29.491,159.797 C29.926,160.321 30.262,160.942 30.500,161.657 C30.737,162.373 30.857,163.148 30.857,163.980 C30.857,164.763 30.766,165.475 30.586,166.115 ZM16.091,156.737 L14.024,156.737 L14.024,142.426 L16.091,142.426 L16.091,148.370 L30.438,148.370 L30.438,150.768 L16.091,150.768 L16.091,156.737 ZM14.024,135.483 L30.438,128.964 L30.438,131.637 L25.861,133.360 L25.861,140.203 L30.438,141.927 L30.438,144.449 L14.024,137.931 L14.024,135.483 ZM23.868,139.504 L23.868,134.084 L16.657,136.782 L23.868,139.504 ZM14.024,121.472 C14.024,120.406 14.168,119.507 14.454,118.774 C14.742,118.042 15.111,117.447 15.562,116.989 C16.013,116.531 16.526,116.198 17.100,115.990 C17.674,115.782 18.257,115.677 18.847,115.677 C19.897,115.677 20.824,115.927 21.628,116.427 C22.432,116.926 23.031,117.701 23.425,118.749 L30.438,114.853 L30.438,117.551 L23.720,121.122 L23.720,124.469 L30.438,124.469 L30.438,126.792 L14.024,126.792 L14.024,121.472 ZM16.066,124.469 L21.727,124.469 L21.727,121.272 C21.727,120.223 21.472,119.436 20.964,118.912 C20.455,118.387 19.774,118.125 18.921,118.125 C18.019,118.125 17.318,118.408 16.817,118.974 C16.317,119.541 16.066,120.323 16.066,121.322 L16.066,124.469 ZM16.091,113.854 L14.024,113.854 L14.024,99.543 L16.091,99.543 L16.091,105.487 L30.438,105.487 L30.438,107.885 L16.091,107.885 L16.091,113.854 ZM14.024,86.556 L16.116,86.556 L16.116,94.648 L20.890,94.648 L20.890,88.554 L23.006,88.554 L23.006,94.648 L28.322,94.648 L28.322,85.956 L30.438,85.956 L30.438,97.046 L14.024,97.046 L14.024,86.556 ZM14.024,77.390 C14.024,76.075 14.184,74.863 14.504,73.756 C14.824,72.649 15.324,71.695 16.005,70.896 C16.686,70.097 17.543,69.473 18.577,69.023 C19.610,68.573 20.841,68.349 22.268,68.349 C23.646,68.349 24.848,68.573 25.873,69.023 C26.899,69.473 27.752,70.097 28.433,70.896 C29.114,71.695 29.618,72.653 29.946,73.768 C30.275,74.884 30.438,76.100 30.438,77.415 L30.438,82.959 L14.024,82.959 L14.024,77.390 ZM16.140,80.562 L28.322,80.562 L28.322,77.465 C28.322,75.384 27.817,73.764 26.808,72.607 C25.799,71.450 24.302,70.871 22.317,70.871 C20.316,70.871 18.786,71.429 17.728,72.545 C16.669,73.660 16.140,75.325 16.140,77.540 L16.140,80.562 ZM30.438,202.842 L14.024,202.842 L14.024,192.352 L16.116,192.352 L16.116,200.445 L20.890,200.445 L20.890,194.350 L23.006,194.350 L23.006,200.445 L28.322,200.445 L28.322,191.753 L30.438,191.753 L30.438,202.842 ZM14.024,190.554 L14.024,176.243 L16.091,176.243 L16.091,182.187 L30.438,182.187 L30.438,184.585 L16.091,184.585 L16.091,190.554 L14.024,190.554 ZM13.938,210.784 C14.143,210.085 14.405,209.473 14.725,208.949 C15.045,208.424 15.394,207.979 15.771,207.612 C16.149,207.246 16.509,206.938 16.854,206.688 L18.281,208.387 C18.002,208.586 17.711,208.828 17.408,209.111 C17.104,209.394 16.829,209.727 16.583,210.110 C16.337,210.493 16.132,210.930 15.968,211.421 C15.804,211.913 15.722,212.474 15.722,213.107 C15.722,214.023 15.894,214.847 16.239,215.580 C16.583,216.313 17.051,216.933 17.641,217.440 C18.232,217.948 18.925,218.339 19.721,218.614 C20.517,218.889 21.357,219.026 22.243,219.026 C23.195,219.026 24.064,218.876 24.852,218.577 C25.639,218.277 26.316,217.857 26.882,217.315 C27.448,216.775 27.891,216.138 28.211,215.405 C28.531,214.672 28.691,213.865 28.691,212.982 C28.691,212.017 28.585,211.196 28.371,210.522 C28.158,209.848 27.863,209.269 27.485,208.786 L24.138,208.786 L24.138,212.333 L22.096,212.333 L22.096,206.488 L28.642,206.488 C28.921,206.805 29.192,207.167 29.454,207.575 C29.717,207.983 29.950,208.458 30.155,208.999 C30.361,209.540 30.524,210.144 30.647,210.809 C30.771,211.475 30.832,212.225 30.832,213.057 C30.832,214.356 30.614,215.526 30.180,216.566 C29.745,217.607 29.146,218.498 28.383,219.239 C27.621,219.980 26.718,220.546 25.676,220.937 C24.635,221.328 23.498,221.524 22.268,221.524 C21.071,221.524 19.947,221.320 18.896,220.912 C17.847,220.504 16.932,219.934 16.153,219.201 C15.373,218.469 14.758,217.590 14.307,216.566 C13.856,215.542 13.630,214.406 13.630,213.157 C13.630,212.275 13.733,211.484 13.938,210.784 Z" class="cls-3"/>
    <text transform="translate(7 7) rotate(90) scale(1 0.98)" class="cls-4"><tspan class="cls-5">+</tspan></text>
  </g>
</svg>
